<?xml version="1.0" encoding="UTF-8"?>
<!DOCTYPE svg PUBLIC "-//W3C//DTD SVG 1.1//EN" "http://www.w3.org/Graphics/SVG/1.1/DTD/svg11.dtd">
<svg xmlns="http://www.w3.org/2000/svg" version="1.1" width="32px" height="32px" style="shape-rendering:geometricPrecision; text-rendering:geometricPrecision; image-rendering:optimizeQuality; fill-rule:evenodd; clip-rule:evenodd" xmlns:xlink="http://www.w3.org/1999/xlink">
<g><path style="opacity:0.96" fill="#34bea6" d="M 9.5,-0.5 C 13.5,-0.5 17.5,-0.5 21.5,-0.5C 25.8333,1.83333 29.1667,5.16667 31.5,9.5C 31.5,13.5 31.5,17.5 31.5,21.5C 29.1667,25.8333 25.8333,29.1667 21.5,31.5C 17.5,31.5 13.5,31.5 9.5,31.5C 5.16667,29.1667 1.83333,25.8333 -0.5,21.5C -0.5,17.5 -0.5,13.5 -0.5,9.5C 1.83333,5.16667 5.16667,1.83333 9.5,-0.5 Z"/></g>
<g><path style="opacity:1" fill="#f1faf9" d="M 20.5,8.5 C 21.9953,8.41483 22.9953,9.08149 23.5,10.5C 20.8676,14.9315 17.8676,19.0982 14.5,23C 13.8333,23.6667 13.1667,23.6667 12.5,23C 10.792,20.9565 8.79201,19.2899 6.5,18C 7.33333,17.1667 8.16667,16.3333 9,15.5C 10.2419,16.8721 11.7419,17.8721 13.5,18.5C 15.8586,15.1486 18.1919,11.8153 20.5,8.5 Z"/></g>
</svg>
