<?xml version="1.0" encoding="UTF-8"?>
<!DOCTYPE svg PUBLIC "-//W3C//DTD SVG 1.1//EN" "http://www.w3.org/Graphics/SVG/1.1/DTD/svg11.dtd">
<svg xmlns="http://www.w3.org/2000/svg" version="1.1" width="512px" height="512px" style="shape-rendering:geometricPrecision; text-rendering:geometricPrecision; image-rendering:optimizeQuality; fill-rule:evenodd; clip-rule:evenodd" xmlns:xlink="http://www.w3.org/1999/xlink">
<g><path style="opacity:0.994" fill="#00ff7f" d="M 240.5,95.5 C 307.961,92.6422 359.461,119.642 395,176.5C 421.594,227.829 422.26,279.496 397,331.5C 361.801,391.191 309.301,419.025 239.5,415C 171.681,406.169 126.181,369.669 103,305.5C 84.0921,237.946 100.259,180.446 151.5,133C 177.694,112.214 207.361,99.7144 240.5,95.5 Z"/></g>
<g><path style="opacity:1" fill="#fdfffe" d="M 319.5,196.5 C 327.774,202.939 335.274,210.272 342,218.5C 342.667,219.167 342.667,219.833 342,220.5C 306.196,254.637 270.696,289.137 235.5,324C 234.833,324.667 234.167,324.667 233.5,324C 212.167,307.667 190.833,291.333 169.5,275C 175.673,266.666 182.006,258.5 188.5,250.5C 202.679,260.757 216.679,271.257 230.5,282C 231.167,282.667 231.833,282.667 232.5,282C 261.7,253.633 290.7,225.133 319.5,196.5 Z"/></g>
</svg>
